<svg xmlns="http://www.w3.org/2000/svg" xmlns:xlink="http://www.w3.org/1999/xlink" version="1.1" x="0px" y="0px" viewBox="0 0 64 80" style="enable-background:new 0 0 64 64;" xml:space="preserve"><path d="M56.7,34.8v11c0,3-2.5,5.5-5.5,5.5H13.4c-3,0-5.5-2.5-5.5-5.5v-11c0-0.8,0.7-1.5,1.5-1.5s1.5,0.7,1.5,1.5v11  c0,1.4,1.1,2.5,2.5,2.5h37.8c1.4,0,2.5-1.1,2.5-2.5v-11c0-0.8,0.7-1.5,1.5-1.5S56.7,33.9,56.7,34.8z M35.2,11.8  c-0.8-0.8-1.9-1.2-2.9-1.2s-2.1,0.4-2.9,1.2l-7,7c-0.6,0.6-0.6,1.5,0,2.1c0.6,0.6,1.5,0.6,2.1,0l6.3-6.3v24.5c0,0.8,0.7,1.5,1.5,1.5  c0.8,0,1.5-0.7,1.5-1.5V14.7l6.3,6.3c0.6,0.6,1.5,0.6,2.1,0c0.6-0.6,0.6-1.5,0-2.1L35.2,11.8z"/></svg>